<svg xmlns="http://www.w3.org/2000/svg" viewBox="0 0 200 42.8"><defs><style>.a{fill:#231815;}.b{fill:#1f286f;}</style></defs><path class="a" d="M11.83,22.13H7.53a.69.69,0,0,0-.7.56V34.28c0,.33-.3.56-.71.56H.71c-.42,0-.71-.23-.71-.56V.56A.65.65,0,0,1,.71,0H11.83c6,0,10.89,3.91,10.89,8.71v4.71C22.72,18.22,17.83,22.13,11.83,22.13ZM15.89,8.71c0-1.79-1.82-3.25-4.06-3.25H7.53a.69.69,0,0,0-.7.61v10a.7.7,0,0,0,.7.61h4.3c2.24,0,4.06-1.46,4.06-3.25Z"/><path class="a" d="M42.14,13.47H36.72c-2.23,0-4.06,1.46-4.06,3.24V34.28c0,.33-.35.56-.76.56H26.54c-.41,0-.76-.23-.76-.56V16.71C25.78,11.86,30.72,8,36.72,8h5.42a.71.71,0,0,1,.76.61v4.28A.72.72,0,0,1,42.14,13.47Z"/><path class="a" d="M56.15,34.84c-5.6,0-10.19-3.62-10.19-8.1V16.1C46,11.63,50.55,8,56.15,8s10.18,3.67,10.18,8.14V26.74C66.33,31.22,61.74,34.84,56.15,34.84ZM59.44,16.1c0-1.46-1.47-2.63-3.29-2.63s-3.3,1.17-3.3,2.63V26.74c0,1.42,1.47,2.64,3.3,2.64s3.29-1.22,3.29-2.64Z"/><path class="a" d="M97.28,34.84c-5.59,0-10.18-3.62-10.18-8.1V16.1C87.1,11.63,91.69,8,97.28,8s10.18,3.67,10.18,8.14v6.74a.72.72,0,0,1-.76.61h-12c-.41,0-.7.23-.7.56v2.73c0,1.42,1.47,2.64,3.29,2.64s3.3-1.22,3.3-2.64c0-.42.12-.8.76-.8h5.36c.65,0,.76.38.76.8C107.46,31.22,102.87,34.84,97.28,34.84Zm3.3-18.74c0-1.46-1.47-2.63-3.3-2.63S94,14.64,94,16.1v1.27c0,.33.29.57.7.57h5.18c.41,0,.71-.24.71-.57Z"/><path class="a" d="M123.06,34.84c-5.59,0-10.18-3.62-10.18-8.1v-11c0-4.47,4.59-8.1,10.18-8.1s10.18,3.63,10.18,8.1V18c0,.33-.35.57-.76.57h-5.36c-.41,0-.76-.24-.76-.57V15.77c0-1.46-1.47-2.63-3.3-2.63s-3.29,1.17-3.29,2.63v11c0,1.46,1.47,2.64,3.29,2.64s3.3-1.18,3.3-2.64v-2.3a.72.72,0,0,1,.76-.62h5.36a.72.72,0,0,1,.76.62v2.3C133.24,31.22,128.65,34.84,123.06,34.84Z"/><path class="a" d="M157.08,13.47H150c-.41,0-.71.23-.71.56v12.1c0,1.79,2,2.75,4.21,2.75h3.77c.41,0,.7.23.7.56l-.15,4.84c0,.33-.29.56-.7.56h-3.77c-7,0-10.95-3.14-10.95-8.71V14c0-.33-.29-.56-.7-.56h-3.41a.66.66,0,0,1-.71-.62V8.57a.65.65,0,0,1,.71-.61h3.41c.41,0,.7-.24.7-.57V.61c0-.33.36-.56.77-.56h5.36c.41,0,.76.23.76.56V7.39c0,.33.3.57.71.57h7.12a.65.65,0,0,1,.7.61v4.28A.66.66,0,0,1,157.08,13.47Z"/><path d="M80.45,8.57a.69.69,0,0,0-.7-.61H74.33a.66.66,0,0,0-.71.61v7.49l6.83-2.88Z"/><path d="M73.62,18.27V32.15c0,3.8-1.58,4.57-4.06,4.57H67.8a.67.67,0,0,0-.71.57v4.94a.7.7,0,0,0,.71.57h4.65c6.71,0,8-3.91,8-8.71V15.39Z"/><path class="b" d="M170.4,34.23a.66.66,0,0,0,.71.61h7a.69.69,0,0,0,.71-.61V.66a.69.69,0,0,0-.71-.61h-7a.66.66,0,0,0-.71.61Z"/><path class="b" d="M191.54,34.23a.65.65,0,0,0,.7.61h7.06a.69.69,0,0,0,.7-.61V.66a.69.69,0,0,0-.7-.61h-7.06a.65.65,0,0,0-.7.61Z"/><polygon class="b" points="180.91 2.09 180.91 17.23 189.5 32.71 189.5 17.54 180.91 2.09"/></svg>